HIERARCHY
ROOT joint_0
{
	OFFSET 0.000000 0.000000 0.000000
	CHANNELS 6 Xposition Yposition Zposition Zrotation Yrotation Xrotation 
	JOINT joint_1
	{
		OFFSET 0.511002 1.944000 108.288940
		CHANNELS 3 Zrotation Yrotation Xrotation
		JOINT joint_2
		{
			OFFSET -9.074005 1.512993 98.440063
			CHANNELS 3 Zrotation Yrotation Xrotation
			JOINT joint_3
			{
				OFFSET -8.590996 1.815002 98.366943
				CHANNELS 3 Zrotation Yrotation Xrotation
				JOINT joint_4
				{
					OFFSET 2.489998 3.531998 136.462036
					CHANNELS 3 Zrotation Yrotation Xrotation
					JOINT joint_5
					{
						OFFSET 22.708000 2.955002 80.357056
						CHANNELS 3 Zrotation Yrotation Xrotation
						End Site
						{
							OFFSET 0.000000 0.000000 0.000000
						}
					}
				}
				JOINT joint_6
				{
					OFFSET 2.860001 -27.684998 77.234009
					CHANNELS 3 Zrotation Yrotation Xrotation
					JOINT joint_7
					{
						OFFSET 5.449997 -131.244003 -18.851929
						CHANNELS 3 Zrotation Yrotation Xrotation
						JOINT joint_8
						{
							OFFSET 35.757000 -24.661995 -264.074097
							CHANNELS 3 Zrotation Yrotation Xrotation
							JOINT joint_9
							{
								OFFSET 49.392001 -1.747002 -239.960938
								CHANNELS 3 Zrotation Yrotation Xrotation
								End Site
								{
									OFFSET 0.000000 0.000000 0.000000
								}
							}
						}
					}
				}
				JOINT joint_10
				{
					OFFSET -0.127998 31.625000 75.753052
					CHANNELS 3 Zrotation Yrotation Xrotation
					JOINT joint_11
					{
						OFFSET -5.618004 131.132996 -19.557007
						CHANNELS 3 Zrotation Yrotation Xrotation
						JOINT joint_12
						{
							OFFSET 46.488998 30.127991 -261.826050
							CHANNELS 3 Zrotation Yrotation Xrotation
							JOINT joint_13
							{
								OFFSET 66.021003 0.474030 -235.934937
								CHANNELS 3 Zrotation Yrotation Xrotation
								End Site
								{
									OFFSET 0.000000 0.000000 0.000000
								}
							}
						}
					}
				}
			}
		}
	}
	JOINT joint_14
	{
		OFFSET 15.887001 -78.871004 -94.561035
		CHANNELS 3 Zrotation Yrotation Xrotation
		JOINT joint_15
		{
			OFFSET -4.133003 6.714001 -473.615967
			CHANNELS 3 Zrotation Yrotation Xrotation
			JOINT joint_16
			{
				OFFSET -19.541000 5.340000 -399.613007
				CHANNELS 3 Zrotation Yrotation Xrotation
				JOINT joint_17
				{
					OFFSET 164.317001 41.657999 -73.195000
					CHANNELS 3 Zrotation Yrotation Xrotation
					End Site
					{
						OFFSET 0.000000 0.000000 0.000000
					}
				}
			}
		}
	}
	JOINT joint_18
	{
		OFFSET 6.513000 77.960991 -96.406982
		CHANNELS 3 Zrotation Yrotation Xrotation
		JOINT joint_19
		{
			OFFSET -10.660004 -8.518997 -473.485016
			CHANNELS 3 Zrotation Yrotation Xrotation
			JOINT joint_20
			{
				OFFSET -36.967995 -11.098999 -398.260010
				CHANNELS 3 Zrotation Yrotation Xrotation
				JOINT joint_21
				{
					OFFSET 166.067997 30.363998 -74.785000
					CHANNELS 3 Zrotation Yrotation Xrotation
					End Site
					{
						OFFSET 0.000000 0.000000 0.000000
					}
				}
			}
		}
	}
}
MOTION
Frames: 10
Frame Time: 0.016667
-72.837000 105.333000 1058.175050 -6.243742 3.367472 0.269391 1.173256 -2.959651 0.364541 1.100841 0.341254 -0.079325 1.127609 -0.521790 0.024000 -0.218012 -0.096211 0.785015 0.000000 0.000000 0.000000 3.974785 -0.967957 0.814269 -0.508035 -0.472844 -2.755846 -0.421133 -0.374130 -2.053814 0.000000 0.000000 0.000000 -1.352069 -0.631369 -1.054495 0.218484 -0.354223 -0.039793 1.088454 1.267115 3.819151 0.000000 0.000000 0.000000 -1.205370 -2.289759 -3.655694 -1.228342 0.676765 -0.039644 -1.260198 -1.857236 -0.086123 0.000000 0.000000 0.000000 -1.667266 -2.303942 1.756189 -1.662045 0.685716 -1.087631 -1.660235 -1.984221 -0.385230 0.000000 0.000000 0.000000 
-72.420000 104.856000 1058.302000 -6.165013 3.589254 0.274763 1.261279 -2.852968 0.233805 1.206900 0.313549 -0.042745 1.226441 -0.487064 -0.008120 -0.230230 -0.354462 0.862096 0.000000 0.000000 0.000000 3.762311 -0.842523 0.907366 -0.544925 -0.380455 -2.863235 -0.381965 -0.681040 -1.874857 0.000000 0.000000 0.000000 -1.212928 -0.683681 -0.990638 0.212189 -0.429612 -0.016889 1.034017 1.077099 3.641166 0.000000 0.000000 0.000000 -1.234464 -2.461465 -3.633150 -1.255490 0.602331 -0.025258 -1.284352 -1.829354 -0.103833 0.000000 0.000000 0.000000 -1.683159 -2.505247 1.794199 -1.680419 0.642581 -1.106711 -1.680788 -1.980750 -0.395086 0.000000 0.000000 0.000000 
-70.813000 104.267000 1058.600950 -5.965403 4.053151 0.268656 1.448753 -2.529543 0.106810 1.418634 0.278598 0.022858 1.425610 -0.441196 -0.068736 -0.246944 -1.010304 1.006198 0.000000 0.000000 0.000000 3.044277 -0.434397 0.157185 -0.540298 -0.007314 -1.986265 -0.330932 -1.765472 -1.662836 0.000000 0.000000 0.000000 -0.725345 -0.730273 -0.586374 0.160176 -0.583975 -0.267611 0.875815 0.417299 3.108422 0.000000 0.000000 0.000000 -1.302485 -2.706317 -3.618736 -1.323503 0.299339 0.051823 -1.340287 -1.710545 -0.158513 0.000000 0.000000 0.000000 -1.745734 -2.838821 1.853114 -1.745224 0.438416 -1.106628 -1.748902 -1.901647 -0.440116 0.000000 0.000000 0.000000 
-68.337000 103.631000 1059.015990 -5.682629 4.681730 0.255338 1.682758 -2.065286 -0.007442 1.677330 0.232650 0.095867 1.669740 -0.393199 -0.142026 -0.259020 -1.993126 1.173038 0.000000 0.000000 0.000000 2.077820 0.141585 -0.973634 -0.525471 0.529902 -0.704819 -0.256197 -3.240327 -1.338490 0.000000 0.000000 0.000000 -0.078604 -0.745204 -0.040075 0.100242 -0.740859 -0.587362 0.639047 -0.523242 2.284584 0.000000 0.000000 0.000000 -1.398692 -3.015366 -3.607220 -1.419705 -0.121112 0.166409 -1.420128 -1.544664 -0.235568 0.000000 0.000000 0.000000 -1.837624 -3.265681 1.929447 -1.839650 0.138230 -1.100956 -1.848423 -1.772026 -0.508408 0.000000 0.000000 0.000000 
-65.077000 103.180000 1059.452030 -5.356707 5.403287 0.228297 1.830593 -1.638785 -0.072114 1.840043 0.189269 0.131426 1.823889 -0.337852 -0.184588 -0.243557 -3.353593 1.285363 0.000000 0.000000 0.000000 1.610748 0.705887 -1.846691 -0.539354 1.099878 0.017303 -0.112319 -4.380659 -0.653051 0.000000 0.000000 0.000000 0.226660 -0.560840 0.374491 0.119237 -0.620424 -0.686487 0.368434 -1.603608 1.328645 0.000000 0.000000 0.000000 -1.512363 -3.427625 -3.592317 -1.530063 -0.430144 0.287061 -1.516810 -1.437585 -0.305055 0.000000 0.000000 0.000000 -1.938850 -3.759723 2.026115 -1.944468 -0.150810 -1.118506 -1.960662 -1.638356 -0.582998 0.000000 0.000000 0.000000 
-60.878000 103.051000 1059.948970 -4.994362 6.293526 0.162568 1.824746 -1.323001 -0.061931 1.834682 0.150567 0.104129 1.820662 -0.259251 -0.166207 -0.184519 -5.447997 1.324223 0.000000 0.000000 0.000000 2.198234 1.280131 -2.267736 -0.625514 1.776383 -0.394906 0.206599 -5.061966 0.937158 0.000000 0.000000 0.000000 -0.212618 0.038898 0.572971 0.314629 0.080314 -0.369815 0.024770 -3.177808 0.109748 0.000000 0.000000 0.000000 -1.644243 -4.029226 -3.557272 -1.654157 -0.608611 0.426265 -1.628610 -1.378641 -0.368841 0.000000 0.000000 0.000000 -2.051048 -4.353000 2.188493 -2.059114 -0.520930 -1.193152 -2.091834 -1.454348 -0.675021 0.000000 0.000000 0.000000 
-55.895000 103.108000 1060.468020 -4.591752 7.268691 0.084938 1.736795 -1.022969 0.005288 1.736678 0.111619 0.034376 1.732013 -0.188064 -0.110808 -0.099862 -7.938067 1.297396 0.000000 0.000000 0.000000 3.350062 1.872514 -2.414039 -0.771822 2.525896 -1.349554 0.577950 -5.526985 2.868577 0.000000 0.000000 0.000000 -1.052134 0.848132 0.535583 0.623774 1.087794 0.210789 -0.313927 -4.957824 -1.114737 0.000000 0.000000 0.000000 -1.793492 -4.723182 -3.516878 -1.792703 -0.678532 0.571970 -1.756407 -1.372617 -0.426071 0.000000 0.000000 0.000000 -2.171262 -5.002982 2.373874 -2.183502 -0.883263 -1.292848 -2.235967 -1.255351 -0.775295 0.000000 0.000000 0.000000 
-50.668000 103.171000 1060.793950 -4.171034 8.037444 0.063318 1.642825 -0.719470 0.071481 1.632273 0.087786 -0.021484 1.635661 -0.149315 -0.066622 -0.015332 -9.819767 1.178968 0.000000 0.000000 0.000000 4.276671 2.250334 -2.407804 -0.864605 3.030668 -1.888385 0.729921 -5.484895 3.716648 0.000000 0.000000 0.000000 -1.673161 1.402894 0.283620 0.845166 1.797501 0.669926 -0.449128 -5.832993 -1.627414 0.000000 0.000000 0.000000 -1.947421 -5.297277 -3.514609 -1.933881 -0.467889 0.658182 -1.896617 -1.563393 -0.438868 0.000000 0.000000 0.000000 -2.274184 -5.594158 2.449375 -2.299593 -0.854108 -1.344476 -2.352965 -1.226850 -0.832183 0.000000 0.000000 0.000000 
-45.068000 103.199000 1060.717040 -3.693553 8.472155 0.143557 1.544188 -0.465163 0.116968 1.527608 0.097106 -0.035792 1.533383 -0.123322 -0.054730 0.072089 -10.632115 0.928799 0.000000 0.000000 0.000000 4.702714 2.251181 -2.325971 -0.777514 3.097936 -1.400009 0.499541 -4.461716 2.499967 0.000000 0.000000 0.000000 -1.773270 1.476837 -0.144860 0.836758 1.905058 0.743065 -0.273319 -5.015931 -0.992369 0.000000 0.000000 0.000000 -2.123561 -5.577347 -3.606312 -2.098145 -0.002725 0.699689 -2.070805 -2.014770 -0.400616 0.000000 0.000000 0.000000 -2.358222 -6.030419 2.312262 -2.405933 -0.320018 -1.273861 -2.429439 -1.442882 -0.826307 0.000000 0.000000 0.000000 
-39.225000 103.234000 1060.447020 -3.195835 8.714812 0.274407 1.436955 -0.247087 0.153043 1.416514 0.122795 -0.030540 1.421644 -0.083829 -0.057302 0.163338 -10.852611 0.610123 0.000000 0.000000 0.000000 4.914759 1.998238 -2.133082 -0.621399 2.879512 -0.517527 0.050745 -2.829133 0.225560 0.000000 0.000000 0.000000 -1.644998 1.293315 -0.674221 0.725635 1.702965 0.620473 0.093820 -3.313711 0.325520 0.000000 0.000000 0.000000 -2.303305 -5.756722 -3.736533 -2.263743 0.746190 0.686861 -2.258304 -2.649242 -0.321738 0.000000 0.000000 0.000000 -2.424375 -6.423227 2.062128 -2.502375 0.605517 -1.141661 -2.479287 -1.818814 -0.779181 0.000000 0.000000 0.000000 
